<svg width="240" height="246" viewBox="0 0 240 246" fill="none" xmlns="http://www.w3.org/2000/svg">
<g clip-path="url(#clip0_39_120)">
<path fill-rule="evenodd" clip-rule="evenodd" d="M237.255 2.29328C238.114 3.01198 238.805 3.91639 239.28 4.94119C239.755 5.96599 240.001 7.08561 240 8.21921V222.594C239.999 224.364 239.398 226.078 238.298 227.446C237.199 228.814 235.67 229.751 233.97 230.097L158.97 245.41C158 245.607 157 245.607 156.03 245.41L82.5 230.404L8.97 245.41C7.88233 245.632 6.75998 245.605 5.68381 245.33C4.60764 245.056 3.60444 244.542 2.74649 243.824C1.88854 243.107 1.1972 242.204 0.722277 241.18C0.247353 240.157 0.000669791 239.039 0 237.907L0 23.5317C0.00104673 21.7624 0.602342 20.0481 1.70165 18.6802C2.80096 17.3124 4.33042 16.3754 6.03 16.0286L81.03 0.71609C82.0004 0.518088 82.9996 0.518088 83.97 0.71609L157.5 15.7223L231.03 0.71609C232.117 0.49277 233.24 0.518396 234.316 0.791121C235.392 1.06385 236.396 1.57688 237.255 2.29328ZM150 29.8098L90 17.5598V216.316L150 228.566V29.8098ZM165 228.566L225 216.316V17.5598L165 29.8098V228.566ZM75 216.316V17.5598L15 29.8098V228.566L75 216.316Z" fill="white"/>
<path d="M184 51.5257H190.48V56.4057L205.52 56.4057V51.5257H212V69.1657H205.52V64.3257H190.48V69.1657H184V51.5257ZM184 76.3594H210.72V83.7994H184V76.3594ZM199 72.8394H205.32V87.5194H199V72.8394ZM184 91.4104H205.32V98.8504H184V91.4104ZM209.36 95.1304C209.36 93.7704 209.667 92.717 210.28 91.9704C210.92 91.2237 211.813 90.8504 212.96 90.8504C214.027 90.8504 214.893 91.2237 215.56 91.9704C216.253 92.7437 216.6 93.797 216.6 95.1304C216.6 96.4637 216.28 97.5037 215.64 98.2504C215.027 99.0237 214.133 99.4104 212.96 99.4104C211.893 99.4104 211.027 99.0237 210.36 98.2504C209.693 97.477 209.36 96.437 209.36 95.1304ZM184 104.686H205.32V111.646L201 111.966L200.52 110.446C201.533 110.713 202.427 111.233 203.2 112.006C204 112.779 204.627 113.699 205.08 114.766C205.533 115.833 205.76 116.953 205.76 118.126C205.76 119.726 205.427 121.073 204.76 122.166C204.12 123.286 203.147 124.126 201.84 124.686C200.56 125.273 198.987 125.566 197.12 125.566H184V118.126H196.52C197.213 118.126 197.787 118.019 198.24 117.806C198.72 117.593 199.08 117.273 199.32 116.846C199.56 116.419 199.667 115.913 199.64 115.326C199.64 114.873 199.573 114.446 199.44 114.046C199.307 113.673 199.093 113.339 198.8 113.046C198.533 112.753 198.227 112.526 197.88 112.366C197.533 112.233 197.147 112.166 196.72 112.166H184V108.446C184 107.539 184 106.766 184 106.126C184 105.513 184 105.033 184 104.686ZM183.6 141.099C183.6 138.672 184.067 136.579 185 134.819C185.96 133.059 187.267 131.699 188.92 130.739C190.6 129.779 192.507 129.299 194.64 129.299C196.24 129.299 197.72 129.565 199.08 130.099C200.44 130.632 201.613 131.379 202.6 132.339C203.613 133.299 204.387 134.432 204.92 135.739C205.48 137.072 205.76 138.525 205.76 140.099C205.76 141.645 205.493 143.045 204.96 144.299C204.427 145.579 203.667 146.672 202.68 147.579C201.693 148.512 200.533 149.219 199.2 149.699C197.867 150.205 196.4 150.432 194.8 150.379L193.12 150.339L193.12 133.539L196.84 132.619L196.84 144.379L196.04 143.659H196.8C197.387 143.659 197.893 143.499 198.32 143.179C198.773 142.885 199.12 142.485 199.36 141.979C199.6 141.472 199.72 140.899 199.72 140.259C199.72 139.352 199.533 138.592 199.16 137.979C198.813 137.392 198.307 136.939 197.64 136.619C196.973 136.299 196.173 136.139 195.24 136.139C194.173 136.139 193.253 136.352 192.48 136.779C191.707 137.232 191.107 137.885 190.68 138.739C190.253 139.619 190.04 140.685 190.04 141.939C190.04 142.765 190.147 143.485 190.36 144.099C190.573 144.739 190.947 145.419 191.48 146.139L186.64 149.579C185.893 148.645 185.293 147.699 184.84 146.739C184.413 145.805 184.107 144.872 183.92 143.939C183.707 143.005 183.6 142.059 183.6 141.099ZM184 154.256H205.32V161.216L198.32 161.616L199.52 160.056C200.693 160.403 201.747 160.936 202.68 161.656C203.64 162.403 204.387 163.296 204.92 164.336C205.48 165.376 205.76 166.47 205.76 167.616C205.76 168.096 205.72 168.55 205.64 168.976C205.587 169.403 205.507 169.803 205.4 170.176L197.16 168.136C197.347 167.843 197.507 167.43 197.64 166.896C197.8 166.363 197.88 165.79 197.88 165.176C197.88 164.643 197.787 164.163 197.6 163.736C197.44 163.31 197.2 162.95 196.88 162.656C196.56 162.363 196.173 162.136 195.72 161.976C195.293 161.816 194.787 161.736 194.2 161.736H184L184 154.256ZM183.6 182.739C183.6 180.473 184.08 178.446 185.04 176.659C186 174.873 187.307 173.473 188.96 172.459C190.613 171.446 192.52 170.939 194.68 170.939C196.84 170.939 198.747 171.446 200.4 172.459C202.053 173.473 203.36 174.873 204.32 176.659C205.28 178.446 205.76 180.473 205.76 182.739C205.76 185.006 205.28 187.019 204.32 188.779C203.36 190.566 202.053 191.966 200.4 192.979C198.747 193.993 196.84 194.499 194.68 194.499C192.52 194.499 190.613 193.993 188.96 192.979C187.307 191.966 186 190.566 185.04 188.779C184.08 187.019 183.6 185.006 183.6 182.739ZM189.88 182.739C189.88 183.539 190.08 184.259 190.48 184.899C190.907 185.566 191.48 186.073 192.2 186.419C192.947 186.793 193.773 186.979 194.68 186.979C195.64 186.979 196.48 186.793 197.2 186.419C197.92 186.073 198.48 185.566 198.88 184.899C199.307 184.259 199.52 183.539 199.52 182.739C199.52 181.913 199.307 181.179 198.88 180.539C198.48 179.899 197.907 179.393 197.16 179.019C196.44 178.646 195.613 178.459 194.68 178.459C193.773 178.459 192.947 178.646 192.2 179.019C191.48 179.393 190.907 179.899 190.48 180.539C190.08 181.179 189.88 181.913 189.88 182.739Z" fill="white"/>
</g>
<defs>
<clipPath id="clip0_39_120">
<rect width="240" height="245" fill="white" transform="translate(0 0.565674)"/>
</clipPath>
</defs>
</svg>
