<?xml version="1.0" encoding="UTF-8" standalone="no"?>
<svg
   width="240"
   height="246"
   viewBox="0 0 240 246"
   fill="none"
   version="1.1"
   id="svg13"
   sodipodi:docname="Icon.svg"
   inkscape:version="1.2.2 (b0a84865, 2022-12-01)"
   xmlns:inkscape="http://www.inkscape.org/namespaces/inkscape"
   xmlns:sodipodi="http://sodipodi.sourceforge.net/DTD/sodipodi-0.dtd"
   xmlns="http://www.w3.org/2000/svg"
   xmlns:svg="http://www.w3.org/2000/svg">
  <sodipodi:namedview
     id="namedview15"
     pagecolor="#ffffff"
     bordercolor="#000000"
     borderopacity="0.25"
     inkscape:showpageshadow="2"
     inkscape:pageopacity="0.0"
     inkscape:pagecheckerboard="0"
     inkscape:deskcolor="#d1d1d1"
     showgrid="false"
     inkscape:zoom="0.6783626"
     inkscape:cx="14.00431"
     inkscape:cy="189.42672"
     inkscape:window-width="1470"
     inkscape:window-height="891"
     inkscape:window-x="0"
     inkscape:window-y="37"
     inkscape:window-maximized="1"
     inkscape:current-layer="svg13" />
  <g
     clip-path="url(#clip0_39_120)"
     id="g6"
     inkscape:label="g6"
     style="fill:#000000">
    <path
       fill-rule="evenodd"
       clip-rule="evenodd"
       d="M237.255 2.29328C238.114 3.01198 238.805 3.91639 239.28 4.94119C239.755 5.96599 240.001 7.08561 240 8.21921V222.594C239.999 224.364 239.398 226.078 238.298 227.446C237.199 228.814 235.67 229.751 233.97 230.097L158.97 245.41C158 245.607 157 245.607 156.03 245.41L82.5 230.404L8.97 245.41C7.88233 245.632 6.75998 245.605 5.68381 245.33C4.60764 245.056 3.60444 244.542 2.74649 243.824C1.88854 243.107 1.1972 242.204 0.722277 241.18C0.247353 240.157 0.000669791 239.039 0 237.907L0 23.5317C0.00104673 21.7624 0.602342 20.0481 1.70165 18.6802C2.80096 17.3124 4.33042 16.3754 6.03 16.0286L81.03 0.71609C82.0004 0.518088 82.9996 0.518088 83.97 0.71609L157.5 15.7223L231.03 0.71609C232.117 0.49277 233.24 0.518396 234.316 0.791121C235.392 1.06385 236.396 1.57688 237.255 2.29328ZM150 29.8098L90 17.5598V216.316L150 228.566V29.8098ZM165 228.566L225 216.316V17.5598L165 29.8098V228.566ZM75 216.316V17.5598L15 29.8098V228.566L75 216.316Z"
       fill="white"
       id="path2"
       style="fill:#000000" />
    <path
       d="m 184,51.5257 h 6.48 v 4.88 h 15.04 v -4.88 H 212 v 17.64 h -6.48 v -4.84 h -15.04 v 4.84 H 184 Z m 0,24.8337 h 26.72 v 7.44 H 184 Z m 15,-3.52 h 6.32 v 14.68 H 199 Z m -15,18.571 h 21.32 v 7.44 H 184 Z m 25.36,3.72 c 0,-1.36 0.307,-2.4134 0.92,-3.16 0.64,-0.7467 1.533,-1.12 2.68,-1.12 1.067,0 1.933,0.3733 2.6,1.12 0.693,0.7733 1.04,1.8266 1.04,3.16 0,1.3333 -0.32,2.3733 -0.96,3.12 -0.613,0.7733 -1.507,1.16 -2.68,1.16 -1.067,0 -1.933,-0.3867 -2.6,-1.16 -0.667,-0.7734 -1,-1.8134 -1,-3.12 z M 184,104.686 h 21.32 v 6.96 l -4.32,0.32 -0.48,-1.52 c 1.013,0.267 1.907,0.787 2.68,1.56 0.8,0.773 1.427,1.693 1.88,2.76 0.453,1.067 0.68,2.187 0.68,3.36 0,1.6 -0.333,2.947 -1,4.04 -0.64,1.12 -1.613,1.96 -2.92,2.52 -1.28,0.587 -2.853,0.88 -4.72,0.88 H 184 v -7.44 h 12.52 c 0.693,0 1.267,-0.107 1.72,-0.32 0.48,-0.213 0.84,-0.533 1.08,-0.96 0.24,-0.427 0.347,-0.933 0.32,-1.52 0,-0.453 -0.067,-0.88 -0.2,-1.28 -0.133,-0.373 -0.347,-0.707 -0.64,-1 -0.267,-0.293 -0.573,-0.52 -0.92,-0.68 -0.347,-0.133 -0.733,-0.2 -1.16,-0.2 H 184 v -3.72 c 0,-0.907 0,-1.68 0,-2.32 0,-0.613 0,-1.093 0,-1.44 z m -0.4,36.413 c 0,-2.427 0.467,-4.52 1.4,-6.28 0.96,-1.76 2.267,-3.12 3.92,-4.08 1.68,-0.96 3.587,-1.44 5.72,-1.44 1.6,0 3.08,0.266 4.44,0.8 1.36,0.533 2.533,1.28 3.52,2.24 1.013,0.96 1.787,2.093 2.32,3.4 0.56,1.333 0.84,2.786 0.84,4.36 0,1.546 -0.267,2.946 -0.8,4.2 -0.533,1.28 -1.293,2.373 -2.28,3.28 -0.987,0.933 -2.147,1.64 -3.48,2.12 -1.333,0.506 -2.8,0.733 -4.4,0.68 l -1.68,-0.04 v -16.8 l 3.72,-0.92 v 11.76 l -0.8,-0.72 h 0.76 c 0.587,0 1.093,-0.16 1.52,-0.48 0.453,-0.294 0.8,-0.694 1.04,-1.2 0.24,-0.507 0.36,-1.08 0.36,-1.72 0,-0.907 -0.187,-1.667 -0.56,-2.28 -0.347,-0.587 -0.853,-1.04 -1.52,-1.36 -0.667,-0.32 -1.467,-0.48 -2.4,-0.48 -1.067,0 -1.987,0.213 -2.76,0.64 -0.773,0.453 -1.373,1.106 -1.8,1.96 -0.427,0.88 -0.64,1.946 -0.64,3.2 0,0.826 0.107,1.546 0.32,2.16 0.213,0.64 0.587,1.32 1.12,2.04 l -4.84,3.44 c -0.747,-0.934 -1.347,-1.88 -1.8,-2.84 -0.427,-0.934 -0.733,-1.867 -0.92,-2.8 -0.213,-0.934 -0.32,-1.88 -0.32,-2.84 z m 0.4,13.157 h 21.32 v 6.96 l -7,0.4 1.2,-1.56 c 1.173,0.347 2.227,0.88 3.16,1.6 0.96,0.747 1.707,1.64 2.24,2.68 0.56,1.04 0.84,2.134 0.84,3.28 0,0.48 -0.04,0.934 -0.12,1.36 -0.053,0.427 -0.133,0.827 -0.24,1.2 l -8.24,-2.04 c 0.187,-0.293 0.347,-0.706 0.48,-1.24 0.16,-0.533 0.24,-1.106 0.24,-1.72 0,-0.533 -0.093,-1.013 -0.28,-1.44 -0.16,-0.426 -0.4,-0.786 -0.72,-1.08 -0.32,-0.293 -0.707,-0.52 -1.16,-0.68 -0.427,-0.16 -0.933,-0.24 -1.52,-0.24 H 184 Z m -0.4,28.483 c 0,-2.266 0.48,-4.293 1.44,-6.08 0.96,-1.786 2.267,-3.186 3.92,-4.2 1.653,-1.013 3.56,-1.52 5.72,-1.52 2.16,0 4.067,0.507 5.72,1.52 1.653,1.014 2.96,2.414 3.92,4.2 0.96,1.787 1.44,3.814 1.44,6.08 0,2.267 -0.48,4.28 -1.44,6.04 -0.96,1.787 -2.267,3.187 -3.92,4.2 -1.653,1.014 -3.56,1.52 -5.72,1.52 -2.16,0 -4.067,-0.506 -5.72,-1.52 -1.653,-1.013 -2.96,-2.413 -3.92,-4.2 -0.96,-1.76 -1.44,-3.773 -1.44,-6.04 z m 6.28,0 c 0,0.8 0.2,1.52 0.6,2.16 0.427,0.667 1,1.174 1.72,1.52 0.747,0.374 1.573,0.56 2.48,0.56 0.96,0 1.8,-0.186 2.52,-0.56 0.72,-0.346 1.28,-0.853 1.68,-1.52 0.427,-0.64 0.64,-1.36 0.64,-2.16 0,-0.826 -0.213,-1.56 -0.64,-2.2 -0.4,-0.64 -0.973,-1.146 -1.72,-1.52 -0.72,-0.373 -1.547,-0.56 -2.48,-0.56 -0.907,0 -1.733,0.187 -2.48,0.56 -0.72,0.374 -1.293,0.88 -1.72,1.52 -0.4,0.64 -0.6,1.374 -0.6,2.2 z"
       fill="#ffffff"
       id="path4"
       style="display:inline;fill:#000000" />
  </g>
  <defs
     id="defs11">
    <clipPath
       id="clip0_39_120">
      <rect
         width="240"
         height="245"
         fill="white"
         transform="translate(0 0.565674)"
         id="rect8" />
    </clipPath>
  </defs>
</svg>
